<?xml version="1.0" standalone="no"?>
<!DOCTYPE svg PUBLIC "-//W3C//DTD SVG 20010904//EN"
 "http://www.w3.org/TR/2001/REC-SVG-20010904/DTD/svg10.dtd">
<svg version="1.0" xmlns="http://www.w3.org/2000/svg"
 width="40.000000pt" height="40.000000pt" viewBox="0 0 40.000000 40.000000"
 preserveAspectRatio="xMidYMid meet">

<g transform="translate(0.000000,40.000000) scale(0.100000,-0.100000)"
fill="#000000" stroke="none">
<path d="M130 210 l0 -160 30 0 30 0 0 65 c0 63 1 65 25 65 21 0 25 5 25 30 0
27 -2 30 -25 24 -24 -6 -25 -4 -25 41 l0 47 50 -4 c49 -3 51 -2 48 22 -3 24
-6 25 -80 28 l-78 3 0 -161z"/>
</g>
</svg>
