<svg width="240" height="70" viewBox="0 0 240 70" fill="none" xmlns="http://www.w3.org/2000/svg">
<path d="M55.1308 24.7215C53.3148 24.7215 52.77 25.5206 52.77 27.3002V30.2421H57.6368L57.1646 35.0363H52.77V49.5278H46.9225V35.0363H43V30.2785H46.9225V27.4092C46.9225 22.5424 48.8838 20 54.2954 20C55.4213 20 56.5835 20.0726 57.7094 20.2179V24.7215" fill="#69779D"/>
<path d="M58.0363 39.2858C58.0363 33.9104 60.5787 29.8427 65.954 29.8427C68.8596 29.8427 70.6392 31.3318 71.5109 33.2204V30.2785H77.1041V49.5642H71.4746V46.6586C70.6755 48.5109 68.8232 49.9637 65.9177 49.9637C60.5787 49.9637 58 45.9322 58 40.5206L58.0363 39.2858ZM63.8838 40.5933C63.8838 43.4625 64.937 45.3874 67.661 45.3874C70.0581 45.3874 71.2567 43.6441 71.2567 40.8838V38.9226C71.2567 36.1623 70.0218 34.4189 67.661 34.4189C64.937 34.4189 63.8838 36.3075 63.8838 39.2131V40.5933Z" fill="#69779D"/>
<path d="M89.2349 29.8427C91.4867 29.8427 93.6659 30.3148 94.8281 31.1502L93.5206 35.2906C92.322 34.7095 90.9782 34.4189 89.6344 34.4189C86.4746 34.4189 85.0944 36.2349 85.0944 39.3584V40.4843C85.0944 43.6078 86.4746 45.4238 89.6344 45.4238C90.9782 45.4238 92.322 45.0969 93.5206 44.5158L94.8281 48.6562C93.6659 49.4552 91.523 49.9637 89.2349 49.9637C82.3705 49.9637 79.2833 46.2954 79.2833 40.3753V39.4673C79.2833 33.5473 82.3705 29.8427 89.2349 29.8427Z" fill="#69779D"/>
<path d="M95.5908 40.6296V38.9226C95.5908 33.4383 98.7143 29.8427 105.07 29.8427C111.063 29.8427 113.714 33.4746 113.714 38.8499V41.9371H101.438C101.547 44.5884 102.746 45.7506 105.978 45.7506C108.085 45.7506 110.191 45.3511 112.189 44.5884L113.242 48.5836C111.717 49.3826 108.557 50 105.76 50C98.3511 49.9637 95.5908 46.2954 95.5908 40.6296ZM101.438 38.0872H108.484V37.615C108.484 35.5085 107.649 33.8378 105.07 33.8378C102.455 33.8378 101.438 35.5085 101.438 38.0872Z" fill="#69779D"/>
<path d="M135.361 40.5206C135.361 45.8959 132.782 49.9637 127.407 49.9637C124.501 49.9637 122.467 48.5109 121.668 46.6586V49.5642H116.148V20.5811L121.995 20.0726V32.9661C122.831 31.2591 124.719 29.8789 127.443 29.8789C132.782 29.8789 135.397 33.9104 135.397 39.322L135.361 40.5206ZM129.513 39.1767C129.513 36.4528 128.46 34.4189 125.663 34.4189C123.266 34.4189 121.995 36.1259 121.995 38.8862V40.9201C121.995 43.6804 123.303 45.3874 125.663 45.3874C128.46 45.3874 129.513 43.3535 129.513 40.6295V39.1767Z" fill="#69779D"/>
<path d="M137.286 40.3753V39.3947C137.286 33.8378 140.446 29.8427 146.874 29.8427C153.303 29.8427 156.462 33.8378 156.462 39.3947V40.3753C156.462 45.9322 153.303 49.9274 146.874 49.9274C140.446 49.9274 137.286 45.9686 137.286 40.3753ZM150.651 38.9952C150.651 36.4528 149.598 34.4189 146.874 34.4189C144.15 34.4189 143.097 36.4528 143.097 38.9952V40.8112C143.097 43.3535 144.15 45.3874 146.874 45.3874C149.598 45.3874 150.651 43.3535 150.651 40.8112V38.9952Z" fill="#69779D"/>
<path d="M158.46 40.3753V39.3947C158.46 33.8378 161.62 29.8427 168.048 29.8427C174.477 29.8427 177.637 33.8378 177.637 39.3947V40.3753C177.637 45.9322 174.477 49.9274 168.048 49.9274C161.62 49.9274 158.46 45.9686 158.46 40.3753ZM171.826 38.9952C171.826 36.4528 170.772 34.4189 168.048 34.4189C165.324 34.4189 164.271 36.4528 164.271 38.9952V40.8112C164.271 43.3535 165.324 45.3874 168.048 45.3874C170.772 45.3874 171.826 43.3535 171.826 40.8112V38.9952Z" fill="#69779D"/>
<path d="M185.663 39.4674L191.438 30.2422H197.613L191.584 39.7942L197.867 49.5642H191.656L185.663 40.1211V49.5642H179.852V20.5812L185.663 20.0364" fill="#69779D"/>
</svg>
