<svg width="240" height="70" viewBox="0 0 240 70" fill="none" xmlns="http://www.w3.org/2000/svg">
<path d="M96.2876 30.5936H85.6157V33.7605H93.1858C92.8098 38.1999 89.1152 40.0942 85.6302 40.0942C83.3866 40.0942 81.2349 39.2029 79.6485 37.6165C78.062 36.03 77.1708 33.8784 77.1708 31.6348C77.1708 29.3912 78.062 27.2395 79.6485 25.6531C81.2349 24.0666 83.3866 23.1754 85.6302 23.1754C87.7568 23.1721 89.8017 23.9937 91.3349 25.4674L93.5546 23.1681C91.4106 21.0953 88.5325 19.9565 85.5507 20.0013C84.0229 20.0122 82.5123 20.3239 81.105 20.9186C79.6978 21.5134 78.4214 22.3794 77.3489 23.4674C76.2763 24.5554 75.4286 25.844 74.854 27.2596C74.2795 28.6753 73.9894 30.1902 74.0003 31.7179C74.0112 33.2457 74.3229 34.7563 74.9177 36.1635C75.5124 37.5708 76.3785 38.8472 77.4665 39.9197C78.5545 40.9923 79.8431 41.84 81.2587 42.4146C82.6743 42.9891 84.1892 43.2792 85.717 43.2683C91.9422 43.2683 96.5045 39.0024 96.5045 32.6904C96.5174 31.9864 96.4519 31.2831 96.3093 30.5936H96.2876Z" fill="#69779D"/>
<path d="M105.029 28.3016C103.553 28.3073 102.111 28.7499 100.886 29.5736C99.6615 30.3973 98.7077 31.5651 98.1455 32.93C97.5832 34.2949 97.4376 35.7957 97.727 37.2432C98.0164 38.6908 98.7278 40.0202 99.7716 41.064C100.815 42.1078 102.145 42.8193 103.592 43.1087C105.04 43.398 106.541 43.2524 107.906 42.6902C109.27 42.1279 110.438 41.1742 111.262 39.9492C112.086 38.7242 112.528 37.2828 112.534 35.8066C112.55 34.8167 112.366 33.8338 111.995 32.9162C111.623 31.9986 111.071 31.165 110.371 30.4649C109.671 29.7649 108.837 29.2127 107.919 28.841C107.002 28.4694 106.019 28.286 105.029 28.3016ZM105.072 31.2371C105.982 31.1835 106.887 31.4045 107.67 31.8715C108.453 32.3385 109.077 33.0299 109.462 33.8561C109.847 34.6822 109.975 35.605 109.829 36.5048C109.683 37.4045 109.27 38.2396 108.644 38.9019C108.018 39.5641 107.207 40.0229 106.317 40.2187C105.427 40.4145 104.498 40.3383 103.652 40C102.806 39.6617 102.08 39.0769 101.57 38.3214C101.06 37.566 100.789 36.6747 100.792 35.7632C100.762 35.1815 100.85 34.5997 101.051 34.0531C101.252 33.5064 101.562 33.0064 101.963 32.5831C102.363 32.1599 102.845 31.8224 103.379 31.591C103.914 31.3596 104.49 31.2392 105.072 31.2371Z" fill="#69779D"/>
<path d="M121.384 28.3016C119.907 28.3059 118.465 28.7473 117.239 29.5701C116.013 30.3929 115.059 31.5603 114.495 32.9251C113.932 34.2898 113.785 35.7909 114.074 37.2389C114.362 38.6869 115.073 40.017 116.117 41.0615C117.16 42.106 118.49 42.8182 119.937 43.1082C121.385 43.3981 122.886 43.2529 124.252 42.6909C125.617 42.1288 126.785 41.1751 127.609 39.9499C128.433 38.7248 128.876 37.2831 128.882 35.8066C128.897 34.8173 128.714 33.835 128.343 32.9179C127.972 32.0008 127.42 31.1675 126.721 30.4676C126.022 29.7676 125.189 29.2153 124.272 28.8432C123.355 28.4711 122.373 28.2869 121.384 28.3016ZM121.427 31.2371C122.337 31.1835 123.242 31.4045 124.025 31.8715C124.808 32.3385 125.432 33.0299 125.817 33.8561C126.202 34.6823 126.33 35.605 126.184 36.5048C126.038 37.4045 125.625 38.2396 124.999 38.9019C124.373 39.5641 123.562 40.0229 122.672 40.2187C121.782 40.4145 120.853 40.3383 120.007 40C119.16 39.6617 118.435 39.0769 117.925 38.3214C117.415 37.566 117.144 36.6747 117.147 35.7632C117.117 35.1815 117.205 34.5997 117.406 34.0531C117.607 33.5064 117.917 33.0064 118.317 32.5831C118.718 32.1599 119.2 31.8224 119.734 31.591C120.269 31.3596 120.845 31.2392 121.427 31.2371Z" fill="#69779D"/>
<path d="M137.413 28.3088C133.393 28.3088 130.234 31.83 130.234 35.7777C130.204 37.7068 130.932 39.5708 132.26 40.9697C133.589 42.3687 135.413 43.1913 137.341 43.261C138.119 43.3034 138.896 43.1611 139.609 42.8457C140.321 42.5303 140.949 42.0507 141.441 41.4462V42.8923C141.441 45.4735 139.872 47.0135 137.507 47.0135C136.683 47.0067 135.879 46.754 135.199 46.2877C134.519 45.8214 133.993 45.1628 133.69 44.3962L130.798 45.5964C131.357 46.9133 132.294 48.0346 133.491 48.8185C134.688 49.6023 136.091 50.0134 137.522 49.9996C141.52 49.9996 144.564 47.4835 144.564 42.2054V28.7571H141.448V30.0224C140.937 29.4652 140.312 29.0239 139.616 28.7283C138.92 28.4327 138.169 28.2897 137.413 28.3088ZM137.703 31.2371C139.676 31.2371 141.694 32.9217 141.694 35.7922C141.694 38.6626 139.676 40.3255 137.659 40.3255C137.089 40.311 136.527 40.1818 136.008 39.9456C135.488 39.7095 135.021 39.3711 134.636 38.9508C134.25 38.5305 133.952 38.0367 133.761 37.499C133.57 36.9613 133.489 36.3907 133.523 35.8211C133.523 32.929 135.591 31.2371 137.703 31.2371Z" fill="#69779D"/>
<path d="M158.526 28.2872C154.737 28.2872 151.549 31.3023 151.549 35.7561C151.511 36.7377 151.674 37.7166 152.027 38.633C152.381 39.5495 152.917 40.3844 153.604 41.0867C154.291 41.789 155.113 42.344 156.022 42.7179C156.93 43.0917 157.905 43.2766 158.887 43.2611C160.119 43.2636 161.333 42.9659 162.424 42.394C163.515 41.8221 164.45 40.993 165.149 39.9786L162.56 38.2578C162.185 38.8941 161.649 39.4199 161.005 39.7818C160.361 40.1437 159.633 40.3288 158.895 40.3184C158.127 40.3501 157.368 40.1515 156.715 39.7482C156.062 39.3449 155.544 38.7553 155.229 38.0553L165.257 33.8979L164.737 32.676C164.259 31.4067 163.41 30.3102 162.301 29.5289C161.193 28.7477 159.875 28.3176 158.519 28.2945L158.526 28.2872ZM158.656 31.1793C159.222 31.1549 159.783 31.2923 160.273 31.5753C160.764 31.8583 161.163 32.2752 161.425 32.7772L154.73 35.5753C154.697 35.0284 154.772 34.4803 154.952 33.9626C155.132 33.445 155.412 32.9681 155.777 32.5594C156.142 32.1507 156.584 31.8183 157.078 31.5815C157.573 31.3446 158.109 31.2079 158.656 31.1793Z" fill="#69779D"/>
<path d="M146.769 42.82H150.066V20.7749H146.769V42.82Z" fill="#69779D"/>
</svg>
