<svg width="240" height="70" viewBox="0 0 240 70" fill="none" xmlns="http://www.w3.org/2000/svg">
<path fill-rule="evenodd" clip-rule="evenodd" d="M129.821 43.4225C129.125 43.957 128.377 44.4385 127.628 44.8665V42.621C128.055 42.4605 128.537 42.2465 128.965 42.0865C129.927 41.6585 130.785 42.7285 129.82 43.4225H129.821ZM134.901 39.6785C134.901 39.2505 134.794 38.9295 134.687 38.7695C134.206 38.181 130.676 37.646 127.628 38.555V40.2125C129.5 40.0525 131.692 39.9985 132.228 40.6925C132.977 41.6015 131.372 45.5585 130.677 47.2695C130.463 47.8045 130.947 48.0195 131.427 47.6445C133.833 45.6125 134.849 41.9225 134.902 39.997V39.6795L134.901 39.6785ZM127.628 44.866C122.013 48.235 114.74 50 108.43 50C98.2695 50 89.1785 46.257 82.28 40C81.692 39.519 82.173 38.8235 82.8685 39.198C90.302 43.528 99.4985 46.148 109.019 46.1495C115.008 46.1495 121.479 45.027 127.629 42.62V44.866H127.628ZM127.628 38.5535C126.808 38.8077 126.032 39.1867 125.328 39.677C124.794 40.051 124.901 40.532 125.433 40.479C126.022 40.372 126.77 40.3185 127.626 40.2115V38.556L127.628 38.5535Z" fill="#69779D"/>
<path fill-rule="evenodd" clip-rule="evenodd" d="M170.334 23.6365V23.3695C170.51 23.3712 170.685 23.3377 170.848 23.2711C171.01 23.2045 171.159 23.1061 171.283 22.9816C171.407 22.8571 171.506 22.709 171.572 22.5461C171.639 22.3831 171.672 22.2085 171.671 22.0325C171.671 21.2835 171.029 20.6955 170.334 20.6955V20.4285C171.189 20.4285 171.939 21.1235 171.939 22.0325C171.938 22.8885 171.19 23.6385 170.335 23.6385L170.334 23.6365ZM170.334 22.1925H170.387C170.494 22.1925 170.547 22.2475 170.547 22.353C170.547 22.408 170.602 22.833 170.652 22.9415H171.026C170.959 22.7895 170.923 22.6259 170.919 22.46C170.866 22.246 170.866 22.0855 170.598 22.0325C170.758 21.9795 170.972 21.9255 170.972 21.605C170.972 21.1235 170.545 21.1235 170.331 21.1235V21.391C170.438 21.391 170.596 21.391 170.596 21.6585C170.596 21.7655 170.543 21.926 170.329 21.926V22.1925H170.334ZM170.334 20.428V20.695C169.586 20.695 168.944 21.283 168.944 22.032C168.944 22.782 169.584 23.367 170.334 23.369V23.636C169.424 23.636 168.676 22.941 168.676 22.032C168.676 21.123 169.424 20.4285 170.335 20.428H170.334ZM170.334 21.123H169.692V22.9415H170.066V22.1925H170.334V21.9255H170.066V21.391H170.334V21.123ZM145.648 37.7005V34.492C147.949 34.4385 148.056 31.123 148.056 29.1445C148.056 27.8075 148.002 26.203 147.574 24.9195C147.253 23.85 146.612 23.422 145.648 23.369V20.16C150.141 20.215 152.603 24.12 152.603 29.09C152.602 33.9035 149.875 37.6485 145.65 37.7005H145.648ZM158.537 37.38H155.489C155.168 37.3265 154.9 37.1125 154.9 36.7915V21.016C154.954 20.695 155.168 20.4815 155.489 20.4815H158.377C158.644 20.4815 158.857 20.6965 158.912 20.9625V23.369H158.965C159.821 21.1765 161.051 20.16 163.189 20.16C164.526 20.16 165.914 20.64 166.774 22.032C167.576 23.317 167.575 25.402 167.575 26.952V36.845C167.522 37.112 167.308 37.3795 166.987 37.3795H163.885C163.618 37.326 163.351 37.112 163.351 36.845V28.3425C163.351 26.5775 163.565 24.0645 161.425 24.0645C160.677 24.0645 159.981 24.5455 159.607 25.3475C159.18 26.31 159.126 27.273 159.126 28.342V36.791C159.126 37.1135 158.86 37.3785 158.535 37.38H158.537ZM125.596 23.262V21.016C125.596 20.695 125.864 20.428 126.185 20.428H136.292C136.613 20.428 136.882 20.693 136.882 21.016V22.9415C136.882 23.262 136.615 23.69 136.133 24.3855L130.89 31.8715C132.815 31.8185 134.9 32.1415 136.665 33.102C137.039 33.367 137.145 33.692 137.2 34.0105V36.3635C137.2 36.684 136.826 37.059 136.451 36.898C133.296 35.2405 129.179 35.0795 125.756 36.898C125.382 37.112 125.007 36.6835 125.007 36.3635V34.1175C125.007 33.7965 125.007 33.1545 125.382 32.5665L131.478 23.8495H126.184C125.864 23.8485 125.595 23.6385 125.595 23.262H125.596ZM145.648 20.16V23.369C143.35 23.369 143.243 26.4705 143.243 28.396C143.243 30.3745 143.19 34.491 145.598 34.492H145.647V37.7005H145.595C141.103 37.7005 138.644 33.7965 138.644 28.9305C138.644 24.0105 141.156 20.16 145.595 20.16C145.648 20.1585 145.65 20.1585 145.65 20.16H145.648ZM115.222 37.326V34.492C115.917 34.3315 116.505 33.85 116.933 33.102C117.521 32.032 117.521 31.07 117.521 29.84V29.1985C116.719 29.1985 115.917 29.2515 115.222 29.4125V26.9525C116.023 26.845 116.826 26.792 117.521 26.7385V26.3105C117.521 25.562 117.574 24.7065 117.146 24.065C116.772 23.53 116.023 23.2625 115.382 23.2625H115.222V20.0005H115.861C117.359 20.0005 119.282 20.4305 120.462 21.5515C121.959 22.9415 121.852 24.8115 121.852 26.845V31.6585C121.852 33.1035 122.442 33.7435 122.977 34.4935C123.191 34.7585 123.247 35.0835 122.977 35.2955C122.389 35.8305 121.265 36.793 120.624 37.3275C120.41 37.488 120.142 37.488 119.875 37.3825C118.859 36.527 118.699 36.1525 118.111 35.3505C117.093 36.4185 116.235 37.0035 115.22 37.326H115.222ZM115.222 20V23.262C114.098 23.369 113.19 23.9575 112.922 25.134C112.868 25.4015 112.654 25.6685 112.387 25.7225L109.392 25.348C109.125 25.2945 108.858 25.134 108.965 24.706C109.606 21.3385 112.44 20.1585 115.22 20H115.222ZM115.222 26.952V29.412C113.938 29.786 112.922 30.588 112.922 32.297C112.922 33.632 113.617 34.542 114.792 34.543C114.952 34.543 115.06 34.49 115.22 34.49V37.324C114.503 37.5048 113.766 37.5955 113.027 37.594C110.46 37.594 108.428 35.99 108.428 32.834C108.428 30.321 109.765 28.6095 111.69 27.8075C112.709 27.3235 113.99 27.1135 115.22 26.952H115.222ZM74.793 37.326V34.492C75.489 34.3315 76.1305 33.85 76.505 33.102C77.146 32.032 77.093 31.07 77.093 29.84V29.1985C76.291 29.1985 75.489 29.2515 74.793 29.4125V26.9525C75.5955 26.845 76.3975 26.792 77.093 26.7385V26.3105C77.093 25.562 77.146 24.7065 76.719 24.065C76.3445 23.53 75.649 23.2625 75.0075 23.2625H74.793V20.0005H75.433C76.9305 20.0005 78.853 20.4305 80.083 21.5505C81.5805 22.9405 81.418 24.8105 81.418 26.844V31.6575C81.418 33.1025 82.008 33.7425 82.593 34.4915C82.753 34.7565 82.808 35.0795 82.5395 35.2915C81.9515 35.8265 80.829 36.789 80.1865 37.3235C79.9725 37.484 79.705 37.484 79.438 37.377C78.422 36.5215 78.2615 36.147 77.6735 35.345C76.6655 36.4185 75.81 37.0035 74.795 37.326H74.793ZM88.644 37.38H85.5425C85.2215 37.3265 85.0075 37.1125 85.0075 36.8455V21.0695C85.0075 20.7485 85.2755 20.4815 85.5965 20.4815H88.43C88.751 20.4815 89.02 20.7465 89.02 21.016V23.1015H89.0735C89.8225 21.0695 91.2125 20.16 93.1385 20.16C95.063 20.16 96.2935 21.07 97.1485 23.1015C97.897 21.0695 99.5545 20.16 101.373 20.16C102.71 20.16 104.103 20.695 104.958 21.87C105.921 23.205 105.758 25.13 105.758 26.843V36.79C105.758 37.111 105.491 37.3785 105.117 37.3785H102.068C101.747 37.325 101.533 37.111 101.533 36.79V28.449C101.533 27.8075 101.587 26.096 101.426 25.508C101.212 24.438 100.517 24.1175 99.608 24.1175C98.859 24.1175 98.1105 24.5985 97.7895 25.4025C97.469 26.2045 97.469 27.5415 97.469 28.4505V36.793C97.469 37.114 97.201 37.3815 96.8805 37.3815H93.7785C93.5115 37.328 93.244 37.114 93.244 36.793V28.449C93.244 26.6845 93.5115 24.064 91.3725 24.064C89.127 24.064 89.233 26.631 89.233 28.449V36.7915C89.2313 36.947 89.1688 37.0956 89.0589 37.2056C88.949 37.3156 88.8005 37.3782 88.645 37.38H88.644ZM74.793 20V23.262C73.724 23.369 72.7615 23.9575 72.494 25.134C72.4405 25.4015 72.28 25.6685 71.959 25.7225L68.9645 25.348C68.751 25.2945 68.43 25.134 68.537 24.706C69.1785 21.3385 72.065 20.1585 74.795 20H74.793ZM74.793 26.952V29.412C73.51 29.786 72.494 30.588 72.494 32.299C72.494 33.634 73.189 34.544 74.364 34.545C74.524 34.545 74.6845 34.492 74.791 34.492V37.326C74.0745 37.5071 73.338 37.597 72.599 37.5935C70.032 37.5935 68 35.9895 68 32.8335C68 30.3205 69.337 28.609 71.3155 27.807C72.3335 27.3235 73.565 27.1135 74.795 26.952H74.793Z" fill="#69779D"/>
</svg>
