<svg width="240" height="70" viewBox="0 0 240 70" fill="none" xmlns="http://www.w3.org/2000/svg">
<path d="M190.521 33.5713V31.1001H187.453V27.2581L187.349 27.29L184.467 28.1719L184.41 28.1892V31.1002H179.86V29.4785C179.86 28.7234 180.029 28.1455 180.362 27.7602C180.692 27.3794 181.165 27.1858 181.768 27.1858C182.201 27.1858 182.65 27.2879 183.102 27.4892L183.215 27.5398V24.9372L183.162 24.9176C182.74 24.7662 182.167 24.6899 181.457 24.6899C180.562 24.6899 179.749 24.8847 179.039 25.2708C178.33 25.6574 177.771 26.2093 177.38 26.911C176.991 27.6118 176.793 28.4213 176.793 29.3171V31.1001H174.656V33.5713H176.793V43.9824H179.86V33.5713H184.41V40.1874C184.41 42.9122 185.695 44.293 188.23 44.293C188.646 44.293 189.085 44.2442 189.533 44.1486C189.988 44.0505 190.299 43.9525 190.481 43.8478L190.522 43.8239V41.3298L190.397 41.4123C190.23 41.5232 190.023 41.6139 189.78 41.6813C189.536 41.75 189.332 41.7843 189.174 41.7843C188.58 41.7843 188.141 41.6244 187.868 41.3086C187.593 40.9899 187.453 40.4328 187.453 39.6533V33.5713H190.521ZM167.805 41.7848C166.692 41.7848 165.814 41.4156 165.195 40.6883C164.573 39.9574 164.258 38.9153 164.258 37.5913C164.258 36.2253 164.573 35.1562 165.196 34.4124C165.815 33.6734 166.684 33.2984 167.78 33.2984C168.844 33.2984 169.691 33.6566 170.297 34.3636C170.907 35.0742 171.216 36.1348 171.216 37.5167C171.216 38.9156 170.925 39.9901 170.352 40.709C169.782 41.4224 168.925 41.7848 167.805 41.7848ZM167.942 30.7897C165.817 30.7897 164.13 31.4122 162.927 32.6398C161.725 33.8675 161.115 35.5666 161.115 37.6901C161.115 39.7071 161.71 41.3295 162.884 42.5115C164.058 43.6938 165.655 44.2927 167.631 44.2927C169.69 44.2927 171.344 43.6616 172.546 42.417C173.749 41.1737 174.358 39.4907 174.358 37.4168C174.358 35.3683 173.786 33.7338 172.658 32.5597C171.53 31.3851 169.943 30.7897 167.942 30.7897ZM156.17 30.7897C154.725 30.7897 153.529 31.1593 152.616 31.8881C151.698 32.6212 151.232 33.5826 151.232 34.7461C151.232 35.3509 151.332 35.8881 151.53 36.3437C151.729 36.8009 152.037 37.2034 152.447 37.5412C152.853 37.8762 153.48 38.2272 154.311 38.5843C155.01 38.8718 155.531 39.115 155.862 39.3067C156.186 39.4945 156.415 39.6833 156.545 39.8673C156.671 40.0472 156.735 40.2936 156.735 40.5975C156.735 41.463 156.087 41.8841 154.753 41.8841C154.258 41.8841 153.694 41.7808 153.076 41.5772C152.462 41.3766 151.883 41.0829 151.359 40.7064L151.231 40.615V43.5685L151.278 43.5902C151.712 43.7906 152.259 43.9596 152.904 44.0925C153.548 44.2256 154.133 44.2933 154.641 44.2933C156.209 44.2933 157.472 43.9219 158.393 43.1888C159.32 42.4507 159.79 41.4665 159.79 40.2628C159.79 39.3945 159.537 38.6498 159.039 38.0493C158.544 37.4536 157.684 36.9068 156.485 36.4234C155.53 36.04 154.918 35.7218 154.666 35.4775C154.423 35.2416 154.299 34.9078 154.299 34.4852C154.299 34.1106 154.452 33.8104 154.765 33.5674C155.08 33.3231 155.519 33.1989 156.07 33.1989C156.581 33.1989 157.104 33.2796 157.624 33.4379C158.144 33.5961 158.6 33.808 158.981 34.0672L159.107 34.1529V31.3513L159.059 31.3306C158.707 31.1798 158.244 31.0508 157.681 30.9462C157.12 30.8422 156.612 30.7897 156.17 30.7897ZM143.234 41.7848C142.121 41.7848 141.243 41.4156 140.625 40.6883C140.002 39.9574 139.687 38.9156 139.687 37.5913C139.687 36.2253 140.002 35.1562 140.625 34.4124C141.244 33.6734 142.113 33.2984 143.21 33.2984C144.273 33.2984 145.12 33.6566 145.727 34.3636C146.336 35.0742 146.645 36.1348 146.645 37.5167C146.645 38.9156 146.354 39.9901 145.781 40.709C145.211 41.4224 144.355 41.7848 143.234 41.7848ZM143.371 30.7897C141.246 30.7897 139.559 31.4122 138.357 32.6398C137.154 33.8675 136.545 35.5666 136.545 37.6901C136.545 39.708 137.14 41.3295 138.314 42.5115C139.487 43.6938 141.084 44.2927 143.06 44.2927C145.119 44.2927 146.773 43.6616 147.976 42.417C149.178 41.1737 149.787 39.4907 149.787 37.4168C149.787 35.3683 149.216 33.7338 148.087 32.5597C146.959 31.3851 145.372 30.7897 143.371 30.7897ZM131.888 33.331V31.1001H128.858V43.9821H131.888V37.3924C131.888 36.2719 132.142 35.3514 132.643 34.6561C133.138 33.9691 133.798 33.621 134.603 33.621C134.876 33.621 135.182 33.6659 135.514 33.755C135.843 33.8435 136.081 33.9396 136.221 34.0407L136.348 34.133V31.078L136.299 31.057C136.017 30.9371 135.618 30.8766 135.113 30.8766C134.351 30.8766 133.67 31.1213 133.086 31.603C132.574 32.0264 132.203 32.607 131.92 33.331H131.888ZM123.431 30.7897C122.041 30.7897 120.801 31.0878 119.746 31.6755C118.689 32.2645 117.872 33.1054 117.316 34.1746C116.762 35.2413 116.481 36.4873 116.481 37.8768C116.481 39.0939 116.754 40.2109 117.292 41.1953C117.831 42.1814 118.594 42.9528 119.56 43.4879C120.524 44.0222 121.639 44.2931 122.873 44.2931C124.313 44.2931 125.542 44.0052 126.528 43.4374L126.568 43.4146V40.6384L126.441 40.7314C125.994 41.0567 125.495 41.3163 124.958 41.5034C124.422 41.6903 123.934 41.7848 123.506 41.7848C122.317 41.7848 121.362 41.4127 120.67 40.6792C119.975 39.9447 119.623 38.9134 119.623 37.6157C119.623 36.3097 119.99 35.2519 120.714 34.4714C121.435 33.6931 122.392 33.2984 123.556 33.2984C124.552 33.2984 125.523 33.6356 126.441 34.3017L126.568 34.394V31.4688L126.527 31.4457C126.181 31.2523 125.71 31.0926 125.125 30.9715C124.542 30.8506 123.973 30.7897 123.431 30.7897ZM114.394 31.1002H111.364V43.9821H114.394V31.1002ZM112.91 25.6124C112.411 25.6124 111.976 25.7822 111.619 26.1186C111.26 26.456 111.078 26.8808 111.078 27.3821C111.078 27.8756 111.258 28.2926 111.613 28.621C111.966 28.9485 112.403 29.1145 112.91 29.1145C113.417 29.1145 113.855 28.9485 114.213 28.6216C114.572 28.2926 114.755 27.8757 114.755 27.3821C114.755 26.8983 114.577 26.4779 114.227 26.1322C113.878 25.7872 113.435 25.6124 112.91 25.6124ZM105.349 30.1497V43.9821H108.442V26.0067H104.162L98.7213 39.3583L93.4417 26.0067H88.9873V43.982H91.8934V30.1484H91.9932L97.5683 43.9821H99.7614L105.25 30.1497H105.349Z" fill="#69779D"/>
<path d="M64.2551 34.2551H50V20H64.2551V34.2551Z" fill="#69779D"/>
<path d="M79.9944 34.2551H65.7396V20H79.9944V34.2551Z" fill="#69779D"/>
<path d="M64.2547 50H50V35.745H64.2547V50Z" fill="#69779D"/>
<path d="M79.9944 50H65.7396V35.745H79.9944V50Z" fill="#69779D"/>
</svg>
