<svg width="240" height="70" viewBox="0 0 240 70" fill="none" xmlns="http://www.w3.org/2000/svg">
<path d="M146.45 22.149C146.45 20.9628 147.437 20 148.654 20H174.058C175.275 20 176.261 20.9628 176.261 22.149V47.8514C176.261 49.038 175.275 50 174.058 50H148.654C147.437 50 146.45 49.038 146.45 47.8517V22.1486V22.149Z" fill="#69779D"/>
<path d="M63 45.1295H75.441V41.0446H67.5031V25.4619H63V45.1295ZM81.7398 45.1295V31.5829H77.2371V45.1295H81.7398ZM79.4888 29.7336C81.0587 29.7336 82.036 28.6934 82.036 27.3926C82.0069 26.0635 81.0587 25.0527 79.5187 25.0527C77.9784 25.0527 76.9711 26.0639 76.9711 27.3926C76.9711 28.6934 77.9485 29.7336 79.4593 29.7336H79.4888ZM83.8302 45.1295H88.3329V37.5641C88.3329 37.1593 88.362 36.7544 88.4812 36.466C88.8062 35.6571 89.5471 34.819 90.7912 34.819C92.4208 34.819 93.0728 36.0615 93.0728 37.8817V45.1291H97.5747V37.3619C97.5747 33.2008 95.3532 31.2646 92.3905 31.2646C89.9618 31.2646 88.8951 32.6224 88.3026 33.5474H88.3329V31.5829H83.8302C83.8896 32.8541 83.8302 45.1295 83.8302 45.1295ZM103.927 25.4619H99.4243V45.1295H103.927V40.7373L105.052 39.3205L108.578 45.1295H114.117L108.193 36.7202L113.376 30.9994H107.956C107.956 30.9994 104.253 36.1174 103.927 36.7249V25.4619Z" fill="#69779D"/>
<path d="M126.157 39.4787C126.217 39.1309 126.306 38.4636 126.306 37.709C126.306 34.2072 124.528 30.652 119.848 30.652C114.842 30.652 112.531 34.6113 112.531 38.2023C112.531 42.6436 115.345 45.4171 120.262 45.4171C122.218 45.4171 124.024 45.1291 125.506 44.522L124.913 41.5483C123.698 41.9512 122.454 42.153 120.914 42.153C118.811 42.153 116.975 41.2894 116.827 39.4496L126.157 39.4779V39.4787ZM116.797 36.4326C116.916 35.2766 117.686 33.571 119.612 33.571C121.655 33.571 122.13 35.3919 122.13 36.4326H116.798H116.797ZM137.42 25.4619V32.2703H137.36C136.708 31.3173 135.346 30.6815 133.54 30.6815C130.073 30.6815 127.023 33.4553 127.052 38.1941C127.052 42.5866 129.807 45.4474 133.243 45.4474C135.109 45.4474 136.886 44.6377 137.775 43.0772H137.864L138.042 45.1295H142.041C141.982 44.1757 141.922 42.5287 141.922 40.9105V25.4615H137.419L137.42 25.4619ZM137.42 38.859C137.42 39.2053 137.39 39.5527 137.33 39.8407C137.065 41.084 135.998 41.95 134.695 41.95C132.829 41.95 131.614 40.4478 131.614 38.0784C131.614 35.8538 132.651 34.062 134.725 34.062C136.117 34.062 137.094 35.0154 137.361 36.1997C137.42 36.4605 137.42 36.7497 137.42 37.0094V38.8586V38.859Z" fill="#69779D"/>
<path d="M155.487 45.113V31.5664H150.984V45.113H155.487H155.487ZM153.236 29.7172C154.806 29.7172 155.784 28.6769 155.784 27.3769C155.754 26.0474 154.806 25.0363 153.266 25.0363C151.725 25.0363 150.719 26.0474 150.719 27.3769C150.719 28.6769 151.696 29.7172 153.207 29.7172H153.236H153.236ZM157.979 45.113H162.481V37.5488C162.481 37.1444 162.511 36.7391 162.63 36.4503C162.955 35.641 163.696 34.8033 164.94 34.8033C166.569 34.8033 167.221 36.0455 167.221 37.8668V45.113H171.723V37.3458C171.723 33.1851 169.502 31.2489 166.54 31.2489C164.111 31.2489 163.044 32.6063 162.452 33.5309H162.482V31.5668H157.98C158.038 32.8376 157.979 45.1134 157.979 45.1134V45.113Z" fill="#09122F"/>
</svg>
