<svg width="120" height="30" viewBox="0 0 120 30" fill="none" xmlns="http://www.w3.org/2000/svg">
<g clip-path="url(#clip0)">
<path d="M17.9503 28.329C16.2054 28.6354 14.4297 28.7273 12.5928 28.972L6.99015 12.5625V29.6762C5.24517 29.8598 3.65323 30.1048 2 30.3497V-1H6.65359L13.0214 16.7875V-1H17.9503V28.329ZM27.5941 10.4806C29.4923 10.4806 32.4007 10.3887 34.1457 10.3887V15.287C31.972 15.287 29.4311 15.287 27.5941 15.3789V22.6654C30.472 22.4817 33.3498 22.2366 36.2581 22.1447V26.8591L22.6956 27.9309V-1H36.2581V3.89839H27.5941V10.4806ZM54.4739 3.89851H49.3919V26.4311C47.7387 26.4311 46.0854 26.4311 44.4937 26.4921V3.89851H39.4117V-1H54.4741L54.4739 3.89851ZM62.4337 10.1439H69.1385V15.0422H62.4337V26.1556H57.6269V-1H71.3122V3.89839H62.4337V10.1439ZM79.272 21.8693C82.058 21.9304 84.8744 22.1451 87.5993 22.2979V27.1351C83.2214 26.8594 78.8434 26.5842 74.3737 26.4921V-1H79.272V21.8693ZM91.7322 27.4719C93.2936 27.5639 94.9468 27.6557 96.5388 27.8391V-1H91.7322V27.4719ZM118 -1L111.785 13.9095L118 30.3497C116.163 30.1048 114.326 29.768 112.489 29.4618L108.969 20.4L105.387 28.7273C103.611 28.4208 101.896 28.329 100.121 28.0841L106.428 13.7257L100.733 -1H105.999L109.213 7.23543L112.642 -1H118V-1Z" fill="#E50914"/>
</g>
<defs>
<clipPath id="clip0">
<rect width="120" height="30" fill="white"/>
</clipPath>
</defs>
</svg>
